<?xml version="1.0" encoding="UTF-8" standalone="no"?>
<!-- Created with Inkscape (http://www.inkscape.org/) -->

<svg
   xmlns:dc="http://purl.org/dc/elements/1.1/"
   xmlns:cc="http://creativecommons.org/ns#"
   xmlns:rdf="http://www.w3.org/1999/02/22-rdf-syntax-ns#"
   xmlns:svg="http://www.w3.org/2000/svg"
   xmlns="http://www.w3.org/2000/svg"
   xmlns:sodipodi="http://sodipodi.sourceforge.net/DTD/sodipodi-0.dtd"
   xmlns:inkscape="http://www.inkscape.org/namespaces/inkscape"
   width="450"
   height="311.50821"
   id="svg3281"
   version="1.1"
   inkscape:version="0.48.4 r9939"
   sodipodi:docname="New document 2">
  <defs
     id="defs3283" />
  <sodipodi:namedview
     id="base"
     pagecolor="#ffffff"
     bordercolor="#666666"
     borderopacity="1.0"
     inkscape:pageopacity="0.0"
     inkscape:pageshadow="2"
     inkscape:zoom="1.979899"
     inkscape:cx="235.95884"
     inkscape:cy="131.7634"
     inkscape:document-units="px"
     inkscape:current-layer="layer1"
     showgrid="false"
     fit-margin-top="0"
     fit-margin-left="0"
     fit-margin-right="0"
     fit-margin-bottom="0"
     inkscape:window-width="1855"
     inkscape:window-height="1176"
     inkscape:window-x="65"
     inkscape:window-y="24"
     inkscape:window-maximized="1" />
  <metadata
     id="metadata3286">
    <rdf:RDF>
      <cc:Work
         rdf:about="">
        <dc:format>image/svg+xml</dc:format>
        <dc:type
           rdf:resource="http://purl.org/dc/dcmitype/StillImage" />
        <dc:title></dc:title>
      </cc:Work>
    </rdf:RDF>
  </metadata>
  <g
     inkscape:label="Layer 1"
     inkscape:groupmode="layer"
     id="layer1"
     transform="translate(-20.714285,-293.75708)">
    <g
       id="g3534">
      <rect
         y="293.75708"
         x="20.714285"
         height="230"
         width="450"
         id="rect5658"
         style="opacity:0.8;fill:#d4e0e0;fill-opacity:1;fill-rule:nonzero;stroke:none" />
      <g
         transform="translate(0.71428571,114.21017)"
         id="g5540">
        <rect
           style="fill:#ccccff;fill-opacity:1;fill-rule:nonzero;stroke:#acadda;stroke-width:2;stroke-linecap:round;stroke-linejoin:round;stroke-miterlimit:4;stroke-opacity:1;stroke-dasharray:none;stroke-dashoffset:1.4"
           id="rect5479"
           width="80"
           height="30"
           x="40"
           y="190" />
        <text
           xml:space="preserve"
           style="font-size:12px;font-style:normal;font-weight:normal;text-align:center;text-anchor:middle;fill:#000000;fill-opacity:1;stroke:none;font-family:Bitstream Vera Sans"
           x="80.468803"
           y="208.311"
           id="text5483"><tspan
             sodipodi:role="line"
             id="tspan5485"
             x="80.468803"
             y="208.311">aplikacji</tspan></text>
      </g>
      <g
         transform="translate(0.71428571,114.21017)"
         id="g5545">
        <rect
           style="fill:#ccccff;fill-opacity:1;fill-rule:nonzero;stroke:#acadda;stroke-width:2;stroke-linecap:round;stroke-linejoin:round;stroke-miterlimit:4;stroke-opacity:1;stroke-dasharray:none;stroke-dashoffset:1.4"
           id="rect5494"
           width="80"
           height="30"
           x="40"
           y="250" />
        <text
           xml:space="preserve"
           style="font-size:12px;font-style:normal;font-weight:normal;text-align:center;text-anchor:middle;fill:#000000;fill-opacity:1;stroke:none;font-family:Bitstream Vera Sans"
           x="80.468803"
           y="268.311"
           id="text5496"><tspan
             sodipodi:role="line"
             id="tspan5498"
             x="80.468803"
             y="268.311">transportowa</tspan></text>
      </g>
      <g
         transform="translate(0.71428571,114.21017)"
         id="g5550">
        <rect
           style="fill:#ccccff;fill-opacity:1;fill-rule:nonzero;stroke:#acadda;stroke-width:2;stroke-linecap:round;stroke-linejoin:round;stroke-miterlimit:4;stroke-opacity:1;stroke-dasharray:none;stroke-dashoffset:1.4"
           id="rect5520"
           width="80"
           height="30"
           x="40"
           y="310" />
        <text
           sodipodi:linespacing="125%"
           xml:space="preserve"
           style="font-size:12px;font-style:normal;font-variant:normal;font-weight:normal;font-stretch:normal;text-align:center;line-height:125%;text-anchor:middle;fill:#000000;fill-opacity:1;stroke:none;font-family:Bitstream Vera Sans"
           x="80.468803"
           y="328.311"
           id="text5522"><tspan
             y="328.311"
             x="80.468803"
             id="tspan2322"
             sodipodi:role="line">sieciowa</tspan></text>
      </g>
      <rect
         y="484.21021"
         x="40.714287"
         height="30"
         width="80"
         id="rect5534"
         style="fill:#d3d4ff;fill-opacity:1;fill-rule:nonzero;stroke:#acadda;stroke-width:2;stroke-linecap:round;stroke-linejoin:round;stroke-miterlimit:4;stroke-opacity:1;stroke-dasharray:none;stroke-dashoffset:1.4" />
      <text
         sodipodi:linespacing="125%"
         id="text5536"
         y="502.52109"
         x="81.18309"
         style="font-size:12px;font-style:normal;font-variant:normal;font-weight:normal;font-stretch:normal;text-align:center;line-height:125%;text-anchor:middle;fill:#000000;fill-opacity:1;stroke:none;font-family:Bitstream Vera Sans"
         xml:space="preserve"><tspan
           y="502.52109"
           x="81.18309"
           id="tspan2867"
           sodipodi:role="line">łącza</tspan></text>
      <g
         id="g6136"
         transform="translate(0.71428571,63.757066)">
        <path
           id="path5560"
           d="m 79.25,271.40625 0,24.3125 1.5,0 0,-24.3125 -1.5,0 z"
           style="fill:#000000;fill-opacity:1;fill-rule:evenodd;stroke:none"
           inkscape:connector-curvature="0" />
        <path
           id="path6142"
           d="m 80,299.16855 -3,-5.19 6,0 -3,5.19 z"
           style="fill-rule:evenodd;stroke:#000000;stroke-width:0.4pt;marker-start:none"
           inkscape:connector-curvature="0" />
      </g>
      <g
         id="g6128"
         transform="translate(0.71428571,63.757066)">
        <path
           id="path5562"
           d="m 79.25,331.4375 0,24.3125 1.5,0 0,-24.3125 -1.5,0 z"
           style="fill:#000000;fill-opacity:1;fill-rule:evenodd;stroke:none"
           inkscape:connector-curvature="0" />
        <path
           id="path6134"
           d="m 80,359.20621 -3,-5.19 6,0 -3,5.19 z"
           style="fill-rule:evenodd;stroke:#000000;stroke-width:0.4pt;marker-start:none"
           inkscape:connector-curvature="0" />
      </g>
      <g
         id="g6120"
         transform="translate(0.71428571,63.757066)">
        <path
           id="path5564"
           d="m 79.25,391.4375 0,24.3125 1.5,0 0,-24.3125 -1.5,0 z"
           style="fill:#000000;fill-opacity:1;fill-rule:evenodd;stroke:none"
           inkscape:connector-curvature="0" />
        <path
           id="path6126"
           d="m 80,419.20621 -3,-5.19 6,0 -3,5.19 z"
           style="fill-rule:evenodd;stroke:#000000;stroke-width:0.4pt;marker-start:none"
           inkscape:connector-curvature="0" />
      </g>
      <g
         transform="translate(330.71429,114.21017)"
         id="g5566">
        <rect
           style="fill:#ccccff;fill-opacity:1;fill-rule:nonzero;stroke:#acadda;stroke-width:2;stroke-linecap:round;stroke-linejoin:round;stroke-miterlimit:4;stroke-opacity:1;stroke-dasharray:none;stroke-dashoffset:1.4"
           id="rect5568"
           width="80"
           height="30"
           x="40"
           y="190" />
        <text
           xml:space="preserve"
           style="font-size:12px;font-style:normal;font-weight:normal;text-align:center;text-anchor:middle;fill:#000000;fill-opacity:1;stroke:none;font-family:Bitstream Vera Sans"
           x="80.468803"
           y="208.311"
           id="text5570"><tspan
             sodipodi:role="line"
             id="tspan5572"
             x="80.468803"
             y="208.311">aplikacji</tspan></text>
      </g>
      <g
         transform="translate(330.71429,114.21017)"
         id="g5574">
        <rect
           style="fill:#ccccff;fill-opacity:1;fill-rule:nonzero;stroke:#acadda;stroke-width:2;stroke-linecap:round;stroke-linejoin:round;stroke-miterlimit:4;stroke-opacity:1;stroke-dasharray:none;stroke-dashoffset:1.4"
           id="rect5576"
           width="80"
           height="30"
           x="40"
           y="250" />
        <text
           xml:space="preserve"
           style="font-size:12px;font-style:normal;font-weight:normal;text-align:center;text-anchor:middle;fill:#000000;fill-opacity:1;stroke:none;font-family:Bitstream Vera Sans"
           x="80.468803"
           y="268.311"
           id="text5578"><tspan
             sodipodi:role="line"
             id="tspan5580"
             x="80.468803"
             y="268.311">transportowa</tspan></text>
      </g>
      <g
         transform="translate(330.71429,114.21017)"
         id="g5582">
        <rect
           style="fill:#ccccff;fill-opacity:1;fill-rule:nonzero;stroke:#acadda;stroke-width:2;stroke-linecap:round;stroke-linejoin:round;stroke-miterlimit:4;stroke-opacity:1;stroke-dasharray:none;stroke-dashoffset:1.4"
           id="rect5584"
           width="80"
           height="30"
           x="40"
           y="310" />
        <text
           sodipodi:linespacing="125%"
           xml:space="preserve"
           style="font-size:12px;font-style:normal;font-weight:normal;text-align:center;line-height:125%;text-anchor:middle;fill:#000000;fill-opacity:1;stroke:none;font-family:Bitstream Vera Sans"
           x="80.468803"
           y="328.311"
           id="text5586"><tspan
             y="328.311"
             x="80.468803"
             id="tspan2326"
             sodipodi:role="line">sieciowa</tspan></text>
      </g>
      <g
         transform="translate(330.71429,114.21017)"
         id="g5590">
        <rect
           style="fill:#ccccff;fill-opacity:1;fill-rule:nonzero;stroke:#acadda;stroke-width:2;stroke-linecap:round;stroke-linejoin:round;stroke-miterlimit:4;stroke-opacity:1;stroke-dasharray:none;stroke-dashoffset:1.4"
           id="rect5592"
           width="80"
           height="30"
           x="40"
           y="370" />
        <text
           sodipodi:linespacing="125%"
           xml:space="preserve"
           style="font-size:12px;font-style:normal;font-variant:normal;font-weight:normal;font-stretch:normal;text-align:center;line-height:125%;text-anchor:middle;fill:#000000;fill-opacity:1;stroke:none;font-family:Bitstream Vera Sans"
           x="80.468803"
           y="388.311"
           id="text5594"><tspan
             y="388.311"
             x="80.468803"
             id="tspan2873"
             sodipodi:role="line">łącza</tspan></text>
      </g>
      <g
         id="g6008"
         transform="translate(0.71428571,63.757066)">
        <path
           id="path5598"
           d="m 409.25,275.15625 0,24.28125 1.5,0 0,-24.28125 -1.5,0 z"
           style="fill:#000000;fill-opacity:1;fill-rule:evenodd;stroke:none"
           inkscape:connector-curvature="0" />
        <path
           id="path6014"
           d="m 410,271.70004 3,5.19 -6,0 3,-5.19 z"
           style="fill-rule:evenodd;stroke:#000000;stroke-width:0.4pt;marker-start:none"
           inkscape:connector-curvature="0" />
      </g>
      <g
         id="g6016"
         transform="translate(0.71428571,63.757066)">
        <path
           id="path5600"
           d="m 409.25,335.15625 0,24.28125 1.5,0 0,-24.28125 -1.5,0 z"
           style="fill:#000000;fill-opacity:1;fill-rule:evenodd;stroke:none"
           inkscape:connector-curvature="0" />
        <path
           id="path6022"
           d="m 410,331.70003 3,5.19 -6,0 3,-5.19 z"
           style="fill-rule:evenodd;stroke:#000000;stroke-width:0.4pt;marker-start:none"
           inkscape:connector-curvature="0" />
      </g>
      <g
         id="g6024"
         transform="translate(0.71428571,63.757066)">
        <path
           id="path5602"
           d="m 409.25,395.15625 0,24.28125 1.5,0 0,-24.28125 -1.5,0 z"
           style="fill:#000000;fill-opacity:1;fill-rule:evenodd;stroke:none"
           inkscape:connector-curvature="0" />
        <path
           id="path6030"
           d="m 410,391.70003 3,5.19 -6,0 3,-5.19 z"
           style="fill-rule:evenodd;stroke:#000000;stroke-width:0.4pt;marker-start:none"
           inkscape:connector-curvature="0" />
      </g>
      <g
         transform="translate(110.71429,114.21017)"
         id="g5604">
        <rect
           style="fill:#ccccff;fill-opacity:1;fill-rule:nonzero;stroke:#acadda;stroke-width:2;stroke-linecap:round;stroke-linejoin:round;stroke-miterlimit:4;stroke-opacity:1;stroke-dasharray:none;stroke-dashoffset:1.4"
           id="rect5606"
           width="80"
           height="30"
           x="40"
           y="310" />
        <text
           sodipodi:linespacing="125%"
           xml:space="preserve"
           style="font-size:12px;font-style:normal;font-variant:normal;font-weight:normal;font-stretch:normal;text-align:center;line-height:125%;text-anchor:middle;fill:#000000;fill-opacity:1;stroke:none;font-family:Bitstream Vera Sans"
           x="80.468803"
           y="328.311"
           id="text5608"><tspan
             y="328.311"
             x="80.468803"
             id="tspan2320"
             sodipodi:role="line">sieciowa</tspan></text>
      </g>
      <g
         transform="translate(220.71429,114.21017)"
         id="g5620">
        <rect
           style="fill:#ccccff;fill-opacity:1;fill-rule:nonzero;stroke:#acadda;stroke-width:2;stroke-linecap:round;stroke-linejoin:round;stroke-miterlimit:4;stroke-opacity:1;stroke-dasharray:none;stroke-dashoffset:1.4"
           id="rect5622"
           width="80"
           height="30"
           x="40"
           y="310" />
        <text
           sodipodi:linespacing="125%"
           xml:space="preserve"
           style="font-size:12px;font-style:normal;font-weight:normal;text-align:center;line-height:125%;text-anchor:middle;fill:#000000;fill-opacity:1;stroke:none;font-family:Bitstream Vera Sans"
           x="80.468803"
           y="328.311"
           id="text5624"><tspan
             y="328.311"
             x="80.468803"
             id="tspan2324"
             sodipodi:role="line">sieciowa</tspan></text>
      </g>
      <g
         id="g6084"
         transform="translate(0.71428571,63.757066)">
        <path
           id="path5636"
           d="m 214.25,391.4375 0,24.3125 1.5,0 0,-24.3125 -1.5,0 z"
           style="fill:#000000;fill-opacity:1;fill-rule:evenodd;stroke:none"
           inkscape:connector-curvature="0" />
        <path
           id="path6090"
           d="m 215,419.20621 -3,-5.19 6,0 -3,5.19 z"
           style="fill-rule:evenodd;stroke:#000000;stroke-width:0.4pt;marker-start:none"
           inkscape:connector-curvature="0" />
      </g>
      <g
         id="g6092"
         transform="translate(0.71428571,63.757066)">
        <path
           id="path5638"
           d="m 164.25,395.15625 0,24.28125 1.5,0 0,-24.28125 -1.5,0 z"
           style="fill:#000000;fill-opacity:1;fill-rule:evenodd;stroke:none"
           inkscape:connector-curvature="0" />
        <path
           id="path6098"
           d="m 165,391.70003 3,5.19 -6,0 3,-5.19 z"
           style="fill-rule:evenodd;stroke:#000000;stroke-width:0.4pt;marker-start:none"
           inkscape:connector-curvature="0" />
      </g>
      <g
         id="g6056"
         transform="translate(0.71428571,63.757066)">
        <path
           id="path5640"
           d="m 324.25,391.4375 0,24.3125 1.5,0 0,-24.3125 -1.5,0 z"
           style="fill:#000000;fill-opacity:1;fill-rule:evenodd;stroke:none"
           inkscape:connector-curvature="0" />
        <path
           id="path6062"
           d="m 325,419.20621 -3,-5.19 6,0 -3,5.19 z"
           style="fill-rule:evenodd;stroke:#000000;stroke-width:0.4pt;marker-start:none"
           inkscape:connector-curvature="0" />
      </g>
      <g
         id="g6064"
         transform="translate(0.71428571,63.757066)">
        <path
           id="path5642"
           d="m 274.25,395.15625 0,24.28125 1.5,0 0,-24.28125 -1.5,0 z"
           style="fill:#000000;fill-opacity:1;fill-rule:evenodd;stroke:none"
           inkscape:connector-curvature="0" />
        <path
           id="path6070"
           d="m 275,391.70003 3,5.19 -6,0 3,-5.19 z"
           style="fill-rule:evenodd;stroke:#000000;stroke-width:0.4pt;marker-start:none"
           inkscape:connector-curvature="0" />
      </g>
      <text
         sodipodi:linespacing="125%"
         id="text5648"
         y="383.75708"
         x="246.18303"
         style="font-size:20px;font-style:normal;font-variant:normal;font-weight:normal;font-stretch:normal;text-align:center;line-height:125%;text-anchor:middle;fill:#000000;fill-opacity:1;stroke:none;font-family:Bitstream Vera Sans"
         xml:space="preserve"><tspan
           y="383.75708"
           x="246.18303"
           id="tspan5650"
           sodipodi:role="line">hosty</tspan></text>
      <g
         id="g6108"
         transform="translate(0.71428571,63.757066)">
        <path
           id="path5700"
           d="m 80,507.6875 0,1.5 0.75,0 16.5625,0 0.75,0 0,-1.5 -0.75,0 -16.5625,0 -0.75,0 z"
           style="fill:#000000;fill-opacity:1;fill-rule:evenodd;stroke:none"
           inkscape:connector-curvature="0" />
        <path
           id="path6114"
           d="m 100.76165,508.45312 -5.190005,3 0,-6 5.190005,3 z"
           style="fill-rule:evenodd;stroke:#000000;stroke-width:0.4pt;marker-start:none"
           inkscape:connector-curvature="0" />
      </g>
      <path
         id="path5702"
         d="m 79.964286,515.19457 0,0.75 0,56.25 0,0.75 1.5,0 0,-0.75 0,-56.25 0,-0.75 -1.5,0 z"
         style="fill:#000000;fill-opacity:1;fill-rule:evenodd;stroke:none"
         inkscape:connector-curvature="0" />
      <g
         transform="translate(0.71428571,114.21017)"
         id="g5667">
        <rect
           style="fill:#ccccff;fill-opacity:1;fill-rule:nonzero;stroke:#acadda;stroke-width:2;stroke-linecap:round;stroke-linejoin:round;stroke-miterlimit:4;stroke-opacity:1;stroke-dasharray:none;stroke-dashoffset:1.4"
           id="rect5614"
           width="80"
           height="30"
           x="150"
           y="370" />
        <text
           sodipodi:linespacing="125%"
           xml:space="preserve"
           style="font-size:12px;font-style:normal;font-variant:normal;font-weight:normal;font-stretch:normal;text-align:center;line-height:125%;text-anchor:middle;fill:#000000;fill-opacity:1;stroke:none;font-family:Bitstream Vera Sans"
           x="190.46899"
           y="388.311"
           id="text5616"><tspan
             y="388.311"
             x="190.46899"
             id="tspan2869"
             sodipodi:role="line">łącza</tspan></text>
      </g>
      <g
         id="g6100"
         transform="translate(0.71428571,63.757066)">
        <path
           id="path5716"
           d="m 164.25,454.78125 0,0.75 0,27.15625 0,0.75 1.5,0 0,-0.75 0,-27.15625 0,-0.75 -1.5,0 z"
           style="fill:#000000;fill-opacity:1;fill-rule:evenodd;stroke:none"
           inkscape:connector-curvature="0" />
        <path
           id="path6106"
           d="m 165,452.07445 3,5.19 -6,0 3,-5.19 z"
           style="fill-rule:evenodd;stroke:#000000;stroke-width:0.4pt;marker-start:none"
           inkscape:connector-curvature="0" />
      </g>
      <path
         sodipodi:nodetypes="cccccccccc"
         id="path5662"
         d="m 125.71429,547.67787 c 6.74992,-10.60702 20.56634,-11.69505 22,3 20,-10 23.69918,-3.07595 15,10 20,10 0,20 0,20 7.6014,9.36916 -3,28 -15,10 2,13 -21,19 -20,5 -13,12 -20,5 -19,-9 -15.000004,5 -13.000004,-13 -3,-18 -10.748064,-10.15095 -4,-18 5,-16 -6.23895,-12.55944 13,-13 15,-5 z"
         style="fill:#ccffff;fill-opacity:1;fill-rule:evenodd;stroke:#acadda;stroke-width:1px;stroke-linecap:butt;stroke-linejoin:miter;stroke-opacity:1"
         inkscape:connector-curvature="0" />
      <g
         transform="translate(220.71429,114.21017)"
         id="g5628">
        <rect
           style="fill:#ccccff;fill-opacity:1;fill-rule:nonzero;stroke:#acadda;stroke-width:2;stroke-linecap:round;stroke-linejoin:round;stroke-miterlimit:4;stroke-opacity:1;stroke-dasharray:none;stroke-dashoffset:1.4"
           id="rect5630"
           width="80"
           height="30"
           x="40"
           y="370" />
        <text
           sodipodi:linespacing="125%"
           xml:space="preserve"
           style="font-size:12px;font-style:normal;font-variant:normal;font-weight:normal;font-stretch:normal;text-align:center;line-height:125%;text-anchor:middle;fill:#000000;fill-opacity:1;stroke:none;font-family:Bitstream Vera Sans"
           x="80.468803"
           y="388.311"
           id="text5632"><tspan
             y="388.311"
             x="80.468803"
             id="tspan2871"
             sodipodi:role="line">łącza</tspan></text>
      </g>
      <g
         id="g6072"
         transform="translate(0.71428571,63.757066)">
        <path
           id="path5730"
           d="m 274.25,454.78125 0,0.75 0,27.15625 0,0.75 1.5,0 0,-0.75 0,-27.15625 0,-0.75 -1.5,0 z"
           style="fill:#000000;fill-opacity:1;fill-rule:evenodd;stroke:none"
           inkscape:connector-curvature="0" />
        <path
           id="path6078"
           d="m 275,452.07445 3,5.19 -6,0 3,-5.19 z"
           style="fill-rule:evenodd;stroke:#000000;stroke-width:0.4pt;marker-start:none"
           inkscape:connector-curvature="0" />
      </g>
      <path
         sodipodi:nodetypes="cccccccccc"
         id="path5686"
         d="m 236.12277,548.75707 c 8.13485,-10.59096 24.78607,-11.67734 26.51388,2.99546 24.10353,-9.98486 28.56169,-3.0713 18.07764,9.98486 24.10353,9.98485 0,19.9697 0,19.9697 9.16104,9.35497 -3.61552,27.9576 -18.07764,9.98485 2.41035,12.98032 -25.3087,18.97123 -24.10353,4.99243 -15.66729,11.98183 -24.10352,4.99243 -22.89835,-8.98637 -18.07765,4.99243 -15.66729,-12.9803 -3.61553,-17.97273 -12.95331,-10.13558 -4.82071,-17.97274 6.02588,-15.97577 -7.51904,-12.54042 15.66729,-12.98031 18.07765,-4.99243 z"
         style="fill:#ccffff;fill-opacity:1;fill-rule:evenodd;stroke:#acadda;stroke-width:1.09696996px;stroke-linecap:butt;stroke-linejoin:miter;stroke-opacity:1"
         inkscape:connector-curvature="0" />
      <text
         id="text5688"
         y="563.75708"
         x="247.71828"
         style="font-size:12px;font-style:normal;font-variant:normal;font-weight:normal;font-stretch:normal;text-align:center;line-height:100%;text-anchor:middle;fill:#000000;fill-opacity:1;stroke:none;font-family:Bitstream Vera Sans"
         xml:space="preserve"
         sodipodi:linespacing="100%"><tspan
           sodipodi:role="line"
           id="tspan2342"
           x="247.71828"
           y="563.75708" /><tspan
           id="tspan3149"
           sodipodi:role="line"
           x="247.71828"
           y="575.75708">światłowód</tspan></text>
      <g
         id="g6032"
         transform="translate(0.71428571,63.757066)">
        <path
           id="path5734"
           d="m 409.25,454.625 0,0.75 0,51.28125 0,0.75 1.5,0 0,-0.75 0,-51.28125 0,-0.75 -1.5,0 z"
           style="fill:#000000;fill-opacity:1;fill-rule:evenodd;stroke:none"
           inkscape:connector-curvature="0" />
        <path
           id="path6038"
           d="m 410,451.90844 3,5.19 -6,0 3,-5.19 z"
           style="fill-rule:evenodd;stroke:#000000;stroke-width:0.4pt;marker-start:none"
           inkscape:connector-curvature="0" />
      </g>
      <path
         id="path5736"
         d="m 394.21429,569.72582 0,1.46875 0.75,0 15.75,0 0.75,0 0,-1.46875 -0.75,0 -15.75,0 -0.75,0 z"
         style="fill:#000000;fill-opacity:1;fill-rule:evenodd;stroke:none"
         inkscape:connector-curvature="0" />
      <path
         sodipodi:nodetypes="cccccccccc"
         id="path5694"
         d="m 345.98678,547.69019 c 7.20445,-10.60158 21.95124,-11.68905 23.48144,2.99846 21.34678,-9.99486 25.29505,-3.07437 16.01008,9.99487 21.34677,9.99487 0,19.98974 0,19.98974 8.11327,9.36436 -3.20202,27.98563 -16.01008,9.99487 2.13468,12.99333 -22.4141,18.99025 -21.34676,4.99744 -13.8754,11.99383 -21.34677,4.99743 -20.27943,-8.99538 -16.01007,4.99743 -13.8754,-12.99334 -3.20201,-17.99077 -11.47182,-10.14575 -4.26936,-17.99077 5.33669,-15.9918 -6.65907,-12.55299 13.8754,-12.99332 16.01007,-4.99743 z"
         style="fill:#ccffff;fill-opacity:1;fill-rule:evenodd;stroke:#acadda;stroke-width:1.03286004px;stroke-linecap:butt;stroke-linejoin:miter;stroke-opacity:1"
         inkscape:connector-curvature="0" />
      <text
         id="text5696"
         y="575.50806"
         x="356.7753"
         style="font-size:12px;font-style:normal;font-variant:normal;font-weight:normal;font-stretch:normal;text-align:center;line-height:125%;text-anchor:middle;fill:#000000;fill-opacity:1;stroke:none;font-family:Bitstream Vera Sans"
         xml:space="preserve"
         sodipodi:linespacing="125%"><tspan
           sodipodi:role="line"
           id="tspan2879"
           x="356.7753"
           y="575.50806">WiFi</tspan></text>
      <text
         sodipodi:linespacing="125%"
         xml:space="preserve"
         style="font-size:12px;font-style:normal;font-variant:normal;font-weight:normal;font-stretch:normal;text-align:center;line-height:125%;text-anchor:middle;fill:#000000;fill-opacity:1;stroke:none;font-family:Bitstream Vera Sans"
         x="135.51727"
         y="575.58704"
         id="text24664"><tspan
           y="575.58704"
           x="135.51727"
           id="tspan24666"
           sodipodi:role="line">miedź</tspan></text>
      <g
         transform="matrix(1,0,0,1.16953,112.71429,56.482996)"
         id="g2319">
        <path
           id="path2321"
           d="m 214.25,391.4375 0,24.3125 1.5,0 0,-24.3125 -1.5,0 z"
           style="fill:#000000;fill-opacity:1;fill-rule:evenodd;stroke:none"
           inkscape:connector-curvature="0" />
        <path
           id="path2323"
           d="m 215,419.20621 -3,-5.19 6,0 -3,5.19 z"
           style="fill-rule:evenodd;stroke:#000000;stroke-width:0.4pt;marker-start:none"
           inkscape:connector-curvature="0" />
      </g>
      <g
         transform="matrix(1,0,0,1.16953,2.4439257,57.959326)"
         id="g2328">
        <path
           id="path2330"
           d="m 214.25,391.4375 0,24.3125 1.5,0 0,-24.3125 -1.5,0 z"
           style="fill:#000000;fill-opacity:1;fill-rule:evenodd;stroke:none"
           inkscape:connector-curvature="0" />
        <path
           id="path2332"
           d="m 215,419.20621 -3,-5.19 6,0 -3,5.19 z"
           style="fill-rule:evenodd;stroke:#000000;stroke-width:0.4pt;marker-start:none"
           inkscape:connector-curvature="0" />
      </g>
      <g
         id="g2317"
         transform="translate(-0.82371429,71.303946)">
        <path
           style="fill:#000000;fill-opacity:1;fill-rule:evenodd;stroke:none"
           d="m 125,316.21875 3,0 0,-1.53125 -3,0 0,1.53125 z m 9,0 3,0 0,-1.53125 -3,0 0,1.53125 z m 9,0 3,0 0,-1.53125 -3,0 0,1.53125 z m 9,0 3,0 0,-1.53125 -3,0 0,1.53125 z m 9,0 3,0 0,-1.53125 -3,0 0,1.53125 z m 9,0 3,0 0,-1.53125 -3,0 0,1.53125 z m 9,0 3,0 0,-1.53125 -3,0 0,1.53125 z m 9,0 3,0 0,-1.53125 -3,0 0,1.53125 z m 9,0 3,0 0,-1.53125 -3,0 0,1.53125 z m 9,0 3,0 0,-1.53125 -3,0 0,1.53125 z m 9,0 3,0 0,-1.53125 -3,0 0,1.53125 z m 9,0 3,0 0,-1.53125 -3,0 0,1.53125 z m 9,0 3,0 0,-1.53125 -3,0 0,1.53125 z m 9,0 3,0 0,-1.53125 -3,0 0,1.53125 z m 9,0 3,0 0,-1.53125 -3,0 0,1.53125 z m 9,0 3,0 0,-1.53125 -3,0 0,1.53125 z m 9,0 3,0 0,-1.53125 -3,0 0,1.53125 z m 9,0 3,0 0,-1.53125 -3,0 0,1.53125 z m 9,0 3,0 0,-1.53125 -3,0 0,1.53125 z m 9,0 3,0 0,-1.53125 -3,0 0,1.53125 z m 9,0 3,0 0,-1.53125 -3,0 0,1.53125 z m 9,0 3,0 0,-1.53125 -3,0 0,1.53125 z m 9,0 3,0 0,-1.53125 -3,0 0,1.53125 z m 9,0 3,0 0,-1.53125 -3,0 0,1.53125 z m 9,0 3,0 0,-1.53125 -3,0 0,1.53125 z m 9,0 3,0 0,-1.53125 -3,0 0,1.53125 z m 9,0 3,0 0,-1.53125 -3,0 0,1.53125 z"
           id="path2319"
           inkscape:connector-curvature="0" />
        <path
           style="fill-rule:evenodd;stroke:#000000;stroke-width:0.4pt;marker-start:none"
           d="m 121.538,315.45312 5.19,-3 0,6 -5.19,-3 z"
           id="path2322"
           inkscape:connector-curvature="0" />
        <path
           style="fill-rule:evenodd;stroke:#000000;stroke-width:0.4pt;marker-start:none"
           d="m 368.47567,315.45312 -5.19,3 0,-6 5.19,3 z"
           id="path2324"
           inkscape:connector-curvature="0" />
      </g>
      <text
         xml:space="preserve"
         style="font-size:20px;font-style:normal;font-variant:normal;font-weight:normal;font-stretch:normal;text-align:center;line-height:125%;text-anchor:middle;fill:#000000;fill-opacity:1;stroke:none;font-family:Bitstream Vera Sans"
         x="247.09123"
         y="317.80005"
         id="text2326"
         sodipodi:linespacing="125%"><tspan
           sodipodi:role="line"
           id="tspan2328"
           x="247.09123"
           y="317.80005">procesy</tspan></text>
      <g
         transform="translate(-0.57371429,10.053946)"
         id="g2330">
        <path
           id="path2333"
           d="m 125,316.21875 3,0 0,-1.53125 -3,0 0,1.53125 z m 9,0 3,0 0,-1.53125 -3,0 0,1.53125 z m 9,0 3,0 0,-1.53125 -3,0 0,1.53125 z m 9,0 3,0 0,-1.53125 -3,0 0,1.53125 z m 9,0 3,0 0,-1.53125 -3,0 0,1.53125 z m 9,0 3,0 0,-1.53125 -3,0 0,1.53125 z m 9,0 3,0 0,-1.53125 -3,0 0,1.53125 z m 9,0 3,0 0,-1.53125 -3,0 0,1.53125 z m 9,0 3,0 0,-1.53125 -3,0 0,1.53125 z m 9,0 3,0 0,-1.53125 -3,0 0,1.53125 z m 9,0 3,0 0,-1.53125 -3,0 0,1.53125 z m 9,0 3,0 0,-1.53125 -3,0 0,1.53125 z m 9,0 3,0 0,-1.53125 -3,0 0,1.53125 z m 9,0 3,0 0,-1.53125 -3,0 0,1.53125 z m 9,0 3,0 0,-1.53125 -3,0 0,1.53125 z m 9,0 3,0 0,-1.53125 -3,0 0,1.53125 z m 9,0 3,0 0,-1.53125 -3,0 0,1.53125 z m 9,0 3,0 0,-1.53125 -3,0 0,1.53125 z m 9,0 3,0 0,-1.53125 -3,0 0,1.53125 z m 9,0 3,0 0,-1.53125 -3,0 0,1.53125 z m 9,0 3,0 0,-1.53125 -3,0 0,1.53125 z m 9,0 3,0 0,-1.53125 -3,0 0,1.53125 z m 9,0 3,0 0,-1.53125 -3,0 0,1.53125 z m 9,0 3,0 0,-1.53125 -3,0 0,1.53125 z m 9,0 3,0 0,-1.53125 -3,0 0,1.53125 z m 9,0 3,0 0,-1.53125 -3,0 0,1.53125 z m 9,0 3,0 0,-1.53125 -3,0 0,1.53125 z"
           style="fill:#000000;fill-opacity:1;fill-rule:evenodd;stroke:none"
           inkscape:connector-curvature="0" />
        <path
           id="path2335"
           d="m 121.538,315.45312 5.19,-3 0,6 -5.19,-3 z"
           style="fill-rule:evenodd;stroke:#000000;stroke-width:0.4pt;marker-start:none"
           inkscape:connector-curvature="0" />
        <path
           id="path2337"
           d="m 368.47567,315.45312 -5.19,3 0,-6 5.19,3 z"
           style="fill-rule:evenodd;stroke:#000000;stroke-width:0.4pt;marker-start:none"
           inkscape:connector-curvature="0" />
      </g>
    </g>
  </g>
</svg>
