<?xml version="1.0" encoding="UTF-8" standalone="no"?>
<!-- Created with Inkscape (http://www.inkscape.org/) -->

<svg
   xmlns:dc="http://purl.org/dc/elements/1.1/"
   xmlns:cc="http://creativecommons.org/ns#"
   xmlns:rdf="http://www.w3.org/1999/02/22-rdf-syntax-ns#"
   xmlns:svg="http://www.w3.org/2000/svg"
   xmlns="http://www.w3.org/2000/svg"
   xmlns:xlink="http://www.w3.org/1999/xlink"
   xmlns:sodipodi="http://sodipodi.sourceforge.net/DTD/sodipodi-0.dtd"
   xmlns:inkscape="http://www.inkscape.org/namespaces/inkscape"
   width="102.74353"
   height="92.924667"
   id="svg3573"
   version="1.1"
   inkscape:version="0.48.4 r9939"
   sodipodi:docname="New document 2">
  <defs
     id="defs3575">
    <filter
       color-interpolation-filters="sRGB"
       inkscape:collect="always"
       id="filter5580">
      <feGaussianBlur
         inkscape:collect="always"
         stdDeviation="2.4182119"
         id="feGaussianBlur5582" />
    </filter>
    <radialGradient
       inkscape:collect="always"
       xlink:href="#linearGradient4095-2"
       id="radialGradient3388"
       gradientUnits="userSpaceOnUse"
       cx="47.96574"
       cy="36.580299"
       fx="47.96574"
       fy="36.580299"
       r="9.6006422" />
    <linearGradient
       inkscape:collect="always"
       id="linearGradient4095-2">
      <stop
         style="stop-color:#03c869;stop-opacity:1"
         offset="0"
         id="stop4097-2" />
      <stop
         style="stop-color:#025f32;stop-opacity:1"
         offset="1"
         id="stop4099-43" />
    </linearGradient>
    <radialGradient
       inkscape:collect="always"
       xlink:href="#linearGradient4095-2"
       id="radialGradient3390"
       gradientUnits="userSpaceOnUse"
       cx="47.96574"
       cy="36.580299"
       fx="47.96574"
       fy="36.580299"
       r="9.6006422" />
    <radialGradient
       inkscape:collect="always"
       xlink:href="#linearGradient4095-2"
       id="radialGradient3392"
       gradientUnits="userSpaceOnUse"
       cx="47.96574"
       cy="36.580299"
       fx="47.96574"
       fy="36.580299"
       r="9.6006422" />
    <radialGradient
       inkscape:collect="always"
       xlink:href="#linearGradient4095-2"
       id="radialGradient3394"
       gradientUnits="userSpaceOnUse"
       cx="47.96574"
       cy="36.580299"
       fx="47.96574"
       fy="36.580299"
       r="9.6006422" />
    <radialGradient
       inkscape:collect="always"
       xlink:href="#linearGradient4095-2"
       id="radialGradient3396"
       gradientUnits="userSpaceOnUse"
       cx="47.96574"
       cy="36.580299"
       fx="47.96574"
       fy="36.580299"
       r="9.6006422" />
    <radialGradient
       inkscape:collect="always"
       xlink:href="#linearGradient4095-2"
       id="radialGradient3398"
       gradientUnits="userSpaceOnUse"
       cx="47.96574"
       cy="36.580299"
       fx="47.96574"
       fy="36.580299"
       r="9.6006422" />
  </defs>
  <sodipodi:namedview
     id="base"
     pagecolor="#ffffff"
     bordercolor="#666666"
     borderopacity="1.0"
     inkscape:pageopacity="0.0"
     inkscape:pageshadow="2"
     inkscape:zoom="0.35"
     inkscape:cx="51.373369"
     inkscape:cy="46.466916"
     inkscape:document-units="px"
     inkscape:current-layer="layer1"
     showgrid="false"
     fit-margin-top="0"
     fit-margin-left="0"
     fit-margin-right="0"
     fit-margin-bottom="0"
     inkscape:window-width="514"
     inkscape:window-height="426"
     inkscape:window-x="65"
     inkscape:window-y="24"
     inkscape:window-maximized="0" />
  <metadata
     id="metadata3578">
    <rdf:RDF>
      <cc:Work
         rdf:about="">
        <dc:format>image/svg+xml</dc:format>
        <dc:type
           rdf:resource="http://purl.org/dc/dcmitype/StillImage" />
        <dc:title></dc:title>
      </cc:Work>
    </rdf:RDF>
  </metadata>
  <g
     inkscape:label="Layer 1"
     inkscape:groupmode="layer"
     id="layer1"
     transform="translate(-323.62663,-485.90443)">
    <path
       style="color:#000000;fill:none;stroke:#000000;stroke-width:2;stroke-linecap:butt;stroke-linejoin:round;stroke-miterlimit:4;stroke-opacity:1;stroke-dasharray:none;stroke-dashoffset:0;marker:none;visibility:visible;display:inline;overflow:visible;filter:url(#filter5580);enable-background:accumulate"
       d="M 394.13814,566.06246 357.94971,502.2509"
       id="path5211-2"
       inkscape:connector-curvature="0" />
    <path
       style="color:#000000;fill:none;stroke:#000000;stroke-width:2;stroke-linecap:butt;stroke-linejoin:round;stroke-miterlimit:4;stroke-opacity:1;stroke-dasharray:none;stroke-dashoffset:0;marker:none;visibility:visible;display:inline;overflow:visible;filter:url(#filter5580);enable-background:accumulate"
       d="m 357.30731,561.77981 35.54604,-60.38544"
       id="path5213-8"
       inkscape:connector-curvature="0" />
    <path
       style="color:#000000;fill:none;stroke:#000000;stroke-width:2;stroke-linecap:butt;stroke-linejoin:round;stroke-miterlimit:4;stroke-opacity:1;stroke-dasharray:none;stroke-dashoffset:0;marker:none;visibility:visible;display:inline;overflow:visible;filter:url(#filter5580);enable-background:accumulate"
       d="m 342.53215,530.30229 50.96359,-30.19272 0,62.52677 -50.3212,-27.83726 1.07067,-2.99786 63.81156,0 -47.32334,-27.83726 -3.85439,1.9272 0,56.31691 3.64026,0.21413 46.25267,-27.83725"
       id="path5209-2"
       inkscape:connector-curvature="0" />
    <path
       style="color:#000000;fill:none;stroke:#000000;stroke-width:2;stroke-linecap:butt;stroke-linejoin:round;stroke-miterlimit:4;stroke-opacity:1;stroke-dasharray:none;stroke-dashoffset:0;marker:none;visibility:visible;display:inline;overflow:visible;filter:url(#filter5580);enable-background:accumulate"
       d="m 339.32015,530.94469 17.98716,-30.40685 34.04711,0 17.55888,28.05139 0.6424,6.85225 -16.26482,28.17149 -31.27265,0 -7.70878,-3.97449 -15.38729,-26.65156"
       id="path5207-9"
       inkscape:connector-curvature="0" />
    <path
       transform="translate(309.68951,461.52064)"
       d="m 56.852248,39.79229 c 0,5.026146 -4.074496,9.100642 -9.100642,9.100642 -5.026146,0 -9.100642,-4.074496 -9.100642,-9.100642 0,-5.026146 4.074496,-9.100642 9.100642,-9.100642 5.026146,0 9.100642,4.074496 9.100642,9.100642 z"
       sodipodi:ry="9.1006422"
       sodipodi:rx="9.1006422"
       sodipodi:cy="39.79229"
       sodipodi:cx="47.751606"
       id="path4201-0"
       style="color:#000000;fill:#000000;fill-opacity:1;fill-rule:nonzero;stroke:#000000;stroke-width:1;marker:none;visibility:visible;display:inline;overflow:visible;filter:url(#filter5580);enable-background:accumulate"
       sodipodi:type="arc" />
    <path
       sodipodi:type="arc"
       style="color:#000000;fill:#000000;fill-opacity:1;fill-rule:nonzero;stroke:#000000;stroke-width:1;marker:none;visibility:visible;display:inline;overflow:visible;filter:url(#filter5580);enable-background:accumulate"
       id="path4203-8"
       sodipodi:cx="47.751606"
       sodipodi:cy="39.79229"
       sodipodi:rx="9.1006422"
       sodipodi:ry="9.1006422"
       d="m 56.852248,39.79229 c 0,5.026146 -4.074496,9.100642 -9.100642,9.100642 -5.026146,0 -9.100642,-4.074496 -9.100642,-9.100642 0,-5.026146 4.074496,-9.100642 9.100642,-9.100642 5.026146,0 9.100642,4.074496 9.100642,9.100642 z"
       transform="translate(345.66381,461.52064)" />
    <path
       sodipodi:type="arc"
       style="color:#000000;fill:#000000;fill-opacity:1;fill-rule:nonzero;stroke:#000000;stroke-width:1;marker:none;visibility:visible;display:inline;overflow:visible;filter:url(#filter5580);enable-background:accumulate"
       id="path4205-2"
       sodipodi:cx="47.751606"
       sodipodi:cy="39.79229"
       sodipodi:rx="9.1006422"
       sodipodi:ry="9.1006422"
       d="m 56.852248,39.79229 c 0,5.026146 -4.074496,9.100642 -9.100642,9.100642 -5.026146,0 -9.100642,-4.074496 -9.100642,-9.100642 0,-5.026146 4.074496,-9.100642 9.100642,-9.100642 5.026146,0 9.100642,4.074496 9.100642,9.100642 z"
       transform="translate(309.68951,523.61914)" />
    <path
       transform="translate(345.66381,523.61914)"
       d="m 56.852248,39.79229 c 0,5.026146 -4.074496,9.100642 -9.100642,9.100642 -5.026146,0 -9.100642,-4.074496 -9.100642,-9.100642 0,-5.026146 4.074496,-9.100642 9.100642,-9.100642 5.026146,0 9.100642,4.074496 9.100642,9.100642 z"
       sodipodi:ry="9.1006422"
       sodipodi:rx="9.1006422"
       sodipodi:cy="39.79229"
       sodipodi:cx="47.751606"
       id="path4207-0"
       style="color:#000000;fill:#000000;fill-opacity:1;fill-rule:nonzero;stroke:#000000;stroke-width:1;marker:none;visibility:visible;display:inline;overflow:visible;filter:url(#filter5580);enable-background:accumulate"
       sodipodi:type="arc" />
    <path
       transform="translate(363.2227,492.14162)"
       d="m 56.852248,39.79229 c 0,5.026146 -4.074496,9.100642 -9.100642,9.100642 -5.026146,0 -9.100642,-4.074496 -9.100642,-9.100642 0,-5.026146 4.074496,-9.100642 9.100642,-9.100642 5.026146,0 9.100642,4.074496 9.100642,9.100642 z"
       sodipodi:ry="9.1006422"
       sodipodi:rx="9.1006422"
       sodipodi:cy="39.79229"
       sodipodi:cx="47.751606"
       id="path4209-9"
       style="color:#000000;fill:#000000;fill-opacity:1;fill-rule:nonzero;stroke:#000000;stroke-width:1;marker:none;visibility:visible;display:inline;overflow:visible;filter:url(#filter5580);enable-background:accumulate"
       sodipodi:type="arc" />
    <path
       sodipodi:type="arc"
       style="color:#000000;fill:#000000;fill-opacity:1;fill-rule:nonzero;stroke:#000000;stroke-width:1;marker:none;visibility:visible;display:inline;overflow:visible;filter:url(#filter5580);enable-background:accumulate"
       id="path4211-5"
       sodipodi:cx="47.751606"
       sodipodi:cy="39.79229"
       sodipodi:rx="9.1006422"
       sodipodi:ry="9.1006422"
       d="m 56.852248,39.79229 c 0,5.026146 -4.074496,9.100642 -9.100642,9.100642 -5.026146,0 -9.100642,-4.074496 -9.100642,-9.100642 0,-5.026146 4.074496,-9.100642 9.100642,-9.100642 5.026146,0 9.100642,4.074496 9.100642,9.100642 z"
       transform="translate(291.27409,492.14162)" />
    <path
       style="color:#000000;fill:none;stroke:#000000;stroke-width:2;stroke-linecap:butt;stroke-linejoin:round;stroke-miterlimit:4;stroke-opacity:1;stroke-dasharray:none;stroke-dashoffset:0;marker:none;visibility:visible;display:inline;overflow:visible;enable-background:accumulate"
       d="M 394.13814,566.06246 357.94971,502.2509"
       id="path5211"
       inkscape:connector-curvature="0" />
    <path
       style="color:#000000;fill:none;stroke:#000000;stroke-width:2;stroke-linecap:butt;stroke-linejoin:round;stroke-miterlimit:4;stroke-opacity:1;stroke-dasharray:none;stroke-dashoffset:0;marker:none;visibility:visible;display:inline;overflow:visible;enable-background:accumulate"
       d="m 357.30731,561.77981 35.54604,-60.38544"
       id="path5213"
       inkscape:connector-curvature="0" />
    <path
       style="color:#000000;fill:none;stroke:#000000;stroke-width:2;stroke-linecap:butt;stroke-linejoin:round;stroke-miterlimit:4;stroke-opacity:1;stroke-dasharray:none;stroke-dashoffset:0;marker:none;visibility:visible;display:inline;overflow:visible;enable-background:accumulate"
       d="m 342.53215,530.30229 50.96359,-30.19272 0,62.52677 -50.3212,-27.83726 1.07067,-2.99786 63.81156,0 -47.32334,-27.83726 -3.85439,1.92719 0,56.31692 3.64026,0.21413 46.25267,-27.83726"
       id="path5209"
       inkscape:connector-curvature="0" />
    <path
       style="color:#000000;fill:none;stroke:#000000;stroke-width:2;stroke-linecap:butt;stroke-linejoin:round;stroke-miterlimit:4;stroke-opacity:1;stroke-dasharray:none;stroke-dashoffset:0;marker:none;visibility:visible;display:inline;overflow:visible;enable-background:accumulate"
       d="m 339.32015,530.94469 17.98716,-30.40685 34.04711,0 17.55888,28.05139 0.6424,6.85225 -16.26482,28.17149 -31.27265,0 -7.70878,-3.97449 -15.38729,-26.65157"
       id="path5207"
       inkscape:connector-curvature="0" />
    <path
       transform="translate(309.68951,461.52064)"
       d="m 56.852248,39.79229 c 0,5.026146 -4.074496,9.100642 -9.100642,9.100642 -5.026146,0 -9.100642,-4.074496 -9.100642,-9.100642 0,-5.026146 4.074496,-9.100642 9.100642,-9.100642 5.026146,0 9.100642,4.074496 9.100642,9.100642 z"
       sodipodi:ry="9.1006422"
       sodipodi:rx="9.1006422"
       sodipodi:cy="39.79229"
       sodipodi:cx="47.751606"
       id="path4201"
       style="color:#000000;fill:url(#radialGradient3388);fill-opacity:1;fill-rule:nonzero;stroke:#000000;stroke-width:1;marker:none;visibility:visible;display:inline;overflow:visible;enable-background:accumulate"
       sodipodi:type="arc" />
    <path
       sodipodi:type="arc"
       style="color:#000000;fill:url(#radialGradient3390);fill-opacity:1;fill-rule:nonzero;stroke:#000000;stroke-width:1;marker:none;visibility:visible;display:inline;overflow:visible;enable-background:accumulate"
       id="path4203"
       sodipodi:cx="47.751606"
       sodipodi:cy="39.79229"
       sodipodi:rx="9.1006422"
       sodipodi:ry="9.1006422"
       d="m 56.852248,39.79229 c 0,5.026146 -4.074496,9.100642 -9.100642,9.100642 -5.026146,0 -9.100642,-4.074496 -9.100642,-9.100642 0,-5.026146 4.074496,-9.100642 9.100642,-9.100642 5.026146,0 9.100642,4.074496 9.100642,9.100642 z"
       transform="translate(345.66381,461.52064)" />
    <path
       sodipodi:type="arc"
       style="color:#000000;fill:url(#radialGradient3392);fill-opacity:1;fill-rule:nonzero;stroke:#000000;stroke-width:1;marker:none;visibility:visible;display:inline;overflow:visible;enable-background:accumulate"
       id="path4205"
       sodipodi:cx="47.751606"
       sodipodi:cy="39.79229"
       sodipodi:rx="9.1006422"
       sodipodi:ry="9.1006422"
       d="m 56.852248,39.79229 c 0,5.026146 -4.074496,9.100642 -9.100642,9.100642 -5.026146,0 -9.100642,-4.074496 -9.100642,-9.100642 0,-5.026146 4.074496,-9.100642 9.100642,-9.100642 5.026146,0 9.100642,4.074496 9.100642,9.100642 z"
       transform="translate(309.68951,523.61914)" />
    <path
       transform="translate(345.66381,523.61914)"
       d="m 56.852248,39.79229 c 0,5.026146 -4.074496,9.100642 -9.100642,9.100642 -5.026146,0 -9.100642,-4.074496 -9.100642,-9.100642 0,-5.026146 4.074496,-9.100642 9.100642,-9.100642 5.026146,0 9.100642,4.074496 9.100642,9.100642 z"
       sodipodi:ry="9.1006422"
       sodipodi:rx="9.1006422"
       sodipodi:cy="39.79229"
       sodipodi:cx="47.751606"
       id="path4207"
       style="color:#000000;fill:url(#radialGradient3394);fill-opacity:1;fill-rule:nonzero;stroke:#000000;stroke-width:1;marker:none;visibility:visible;display:inline;overflow:visible;enable-background:accumulate"
       sodipodi:type="arc" />
    <path
       transform="translate(363.2227,492.14162)"
       d="m 56.852248,39.79229 c 0,5.026146 -4.074496,9.100642 -9.100642,9.100642 -5.026146,0 -9.100642,-4.074496 -9.100642,-9.100642 0,-5.026146 4.074496,-9.100642 9.100642,-9.100642 5.026146,0 9.100642,4.074496 9.100642,9.100642 z"
       sodipodi:ry="9.1006422"
       sodipodi:rx="9.1006422"
       sodipodi:cy="39.79229"
       sodipodi:cx="47.751606"
       id="path4209"
       style="color:#000000;fill:url(#radialGradient3396);fill-opacity:1;fill-rule:nonzero;stroke:#000000;stroke-width:1;marker:none;visibility:visible;display:inline;overflow:visible;enable-background:accumulate"
       sodipodi:type="arc" />
    <path
       sodipodi:type="arc"
       style="color:#000000;fill:url(#radialGradient3398);fill-opacity:1;fill-rule:nonzero;stroke:#000000;stroke-width:1;marker:none;visibility:visible;display:inline;overflow:visible;enable-background:accumulate"
       id="path4211"
       sodipodi:cx="47.751606"
       sodipodi:cy="39.79229"
       sodipodi:rx="9.1006422"
       sodipodi:ry="9.1006422"
       d="m 56.852248,39.79229 c 0,5.026146 -4.074496,9.100642 -9.100642,9.100642 -5.026146,0 -9.100642,-4.074496 -9.100642,-9.100642 0,-5.026146 4.074496,-9.100642 9.100642,-9.100642 5.026146,0 9.100642,4.074496 9.100642,9.100642 z"
       transform="translate(291.27409,492.14162)" />
  </g>
</svg>
