<?xml version="1.0" encoding="UTF-8" standalone="no"?>
<!-- Created with Inkscape (http://www.inkscape.org/) -->

<svg
   xmlns:dc="http://purl.org/dc/elements/1.1/"
   xmlns:cc="http://creativecommons.org/ns#"
   xmlns:rdf="http://www.w3.org/1999/02/22-rdf-syntax-ns#"
   xmlns:svg="http://www.w3.org/2000/svg"
   xmlns="http://www.w3.org/2000/svg"
   xmlns:sodipodi="http://sodipodi.sourceforge.net/DTD/sodipodi-0.dtd"
   xmlns:inkscape="http://www.inkscape.org/namespaces/inkscape"
   width="712.05933"
   height="220.55315"
   id="svg4094"
   version="1.1"
   inkscape:version="0.48.4 r9939"
   sodipodi:docname="New document 4">
  <defs
     id="defs4096" />
  <sodipodi:namedview
     id="base"
     pagecolor="#ffffff"
     bordercolor="#666666"
     borderopacity="1.0"
     inkscape:pageopacity="0.0"
     inkscape:pageshadow="2"
     inkscape:zoom="0.35"
     inkscape:cx="356.02966"
     inkscape:cy="110.27657"
     inkscape:document-units="px"
     inkscape:current-layer="layer1"
     showgrid="false"
     fit-margin-top="0"
     fit-margin-left="0"
     fit-margin-right="0"
     fit-margin-bottom="0"
     inkscape:window-width="514"
     inkscape:window-height="426"
     inkscape:window-x="885"
     inkscape:window-y="24"
     inkscape:window-maximized="0" />
  <metadata
     id="metadata4099">
    <rdf:RDF>
      <cc:Work
         rdf:about="">
        <dc:format>image/svg+xml</dc:format>
        <dc:type
           rdf:resource="http://purl.org/dc/dcmitype/StillImage" />
        <dc:title></dc:title>
      </cc:Work>
    </rdf:RDF>
  </metadata>
  <g
     inkscape:label="Layer 1"
     inkscape:groupmode="layer"
     id="layer1"
     transform="translate(-18.970338,-422.0856)">
    <polyline
       transform="translate(11.288617,389.65361)"
       style="fill-rule:evenodd"
       clip-rule="evenodd"
       points="233.025,181.032 236.668,181.032 236.668,168.482 232.709,169.278   232.709,167.237 236.648,166.441 238.872,166.441 238.872,181.032 242.504,181.032 242.504,182.909 233.025,182.909   233.025,181.032 "
       id="polyline12" />
    <path
       style="fill-rule:evenodd"
       inkscape:connector-curvature="0"
       clip-rule="evenodd"
       d="m 292.63662,557.56461 c -1.143,0 -2.01,0.571 -2.591,1.693 -0.571,1.122 -0.857,2.816 -0.857,5.081 0,2.266 0.286,3.959 0.857,5.081 0.582,1.123 1.449,1.694 2.591,1.694 1.153,0 2.021,-0.571 2.592,-1.694 0.582,-1.122 0.867,-2.815 0.867,-5.081 0,-2.265 -0.286,-3.959 -0.867,-5.081 -0.571,-1.122 -1.439,-1.693 -2.592,-1.693 m 0,-1.755 c 1.847,0 3.255,0.734 4.224,2.184 0.97,1.448 1.459,3.57 1.459,6.346 0,2.776 -0.489,4.897 -1.459,6.347 -0.969,1.47 -2.377,2.184 -4.224,2.184 -1.847,0 -3.255,-0.714 -4.234,-2.184 -0.969,-1.449 -1.449,-3.571 -1.449,-6.347 0,-2.776 0.479,-4.897 1.449,-6.346 0.979,-1.449 2.387,-2.184 4.234,-2.184"
       id="path14" />
    <polyline
       transform="translate(11.288617,389.65361)"
       style="fill-rule:evenodd"
       clip-rule="evenodd"
       points="320.508,181.032 324.141,181.032 324.141,168.482 320.192,169.278   320.192,167.237 324.12,166.441 326.345,166.441 326.345,181.032 329.987,181.032 329.987,182.909 320.508,182.909 320.508,181.032   "
       id="polyline16" />
    <path
       style="fill-rule:evenodd"
       inkscape:connector-curvature="0"
       clip-rule="evenodd"
       d="m 380.10962,557.56461 c -1.143,0 -2.01,0.571 -2.582,1.693 -0.572,1.122 -0.857,2.816 -0.857,5.081 0,2.266 0.286,3.959 0.857,5.081 0.571,1.123 1.438,1.694 2.582,1.694 1.163,0 2.02,-0.571 2.591,-1.694 0.582,-1.122 0.878,-2.815 0.878,-5.081 0,-2.265 -0.296,-3.959 -0.878,-5.081 -0.571,-1.122 -1.428,-1.693 -2.591,-1.693 m 0,-1.755 c 1.847,0 3.255,0.734 4.224,2.184 0.979,1.448 1.469,3.57 1.469,6.346 0,2.776 -0.49,4.897 -1.469,6.347 -0.969,1.47 -2.377,2.184 -4.224,2.184 -1.836,0 -3.245,-0.714 -4.224,-2.184 -0.969,-1.449 -1.459,-3.571 -1.459,-6.347 0,-2.776 0.49,-4.897 1.459,-6.346 0.979,-1.449 2.387,-2.184 4.224,-2.184"
       id="path18" />
    <path
       style="fill-rule:evenodd"
       inkscape:connector-curvature="0"
       clip-rule="evenodd"
       d="m 423.85062,557.56461 c -1.144,0 -2,0.571 -2.592,1.693 -0.571,1.122 -0.857,2.816 -0.857,5.081 0,2.266 0.286,3.959 0.857,5.081 0.592,1.123 1.448,1.694 2.592,1.694 1.163,0 2.02,-0.571 2.591,-1.694 0.571,-1.122 0.878,-2.815 0.878,-5.081 0,-2.265 -0.307,-3.959 -0.878,-5.081 -0.571,-1.122 -1.427,-1.693 -2.591,-1.693 m 0,-1.755 c 1.836,0 3.244,0.734 4.224,2.184 0.979,1.448 1.47,3.57 1.47,6.346 0,2.776 -0.49,4.897 -1.47,6.347 -0.979,1.47 -2.388,2.184 -4.224,2.184 -1.837,0 -3.255,-0.714 -4.225,-2.184 -0.97,-1.449 -1.459,-3.571 -1.459,-6.347 0,-2.776 0.489,-4.897 1.459,-6.346 0.971,-1.449 2.389,-2.184 4.225,-2.184"
       id="path20" />
    <path
       style="fill-rule:evenodd"
       inkscape:connector-curvature="0"
       clip-rule="evenodd"
       d="m 598.81562,557.56461 c -1.143,0 -2.021,0.571 -2.592,1.693 -0.571,1.122 -0.857,2.816 -0.857,5.081 0,2.266 0.286,3.959 0.857,5.081 0.571,1.123 1.449,1.694 2.592,1.694 1.143,0 2,-0.571 2.592,-1.694 0.571,-1.122 0.857,-2.815 0.857,-5.081 0,-2.265 -0.286,-3.959 -0.857,-5.081 -0.592,-1.122 -1.449,-1.693 -2.592,-1.693 m 0,-1.755 c 1.837,0 3.244,0.734 4.204,2.184 0.979,1.448 1.469,3.57 1.469,6.346 0,2.776 -0.489,4.897 -1.469,6.347 -0.96,1.47 -2.367,2.184 -4.204,2.184 -1.857,0 -3.265,-0.714 -4.244,-2.184 -0.959,-1.449 -1.449,-3.571 -1.449,-6.347 0,-2.776 0.49,-4.897 1.449,-6.346 0.98,-1.449 2.387,-2.184 4.244,-2.184"
       id="path22" />
    <path
       style="fill-rule:evenodd"
       inkscape:connector-curvature="0"
       clip-rule="evenodd"
       d="m 642.54762,557.56461 c -1.144,0 -2,0.571 -2.592,1.693 -0.571,1.122 -0.857,2.816 -0.857,5.081 0,2.266 0.286,3.959 0.857,5.081 0.592,1.123 1.448,1.694 2.592,1.694 1.163,0 2.02,-0.571 2.591,-1.694 0.572,-1.122 0.878,-2.815 0.878,-5.081 0,-2.265 -0.306,-3.959 -0.878,-5.081 -0.572,-1.122 -1.428,-1.693 -2.591,-1.693 m 0,-1.755 c 1.836,0 3.244,0.734 4.224,2.184 0.979,1.448 1.47,3.57 1.47,6.346 0,2.776 -0.49,4.897 -1.47,6.347 -0.979,1.47 -2.388,2.184 -4.224,2.184 -1.837,0 -3.245,-0.714 -4.225,-2.184 -0.979,-1.449 -1.469,-3.571 -1.469,-6.347 0,-2.776 0.489,-4.897 1.469,-6.346 0.98,-1.449 2.388,-2.184 4.225,-2.184"
       id="path24" />
    <polyline
       transform="translate(11.288617,389.65361)"
       style="fill-rule:evenodd"
       clip-rule="evenodd"
       points="451.723,181.032 455.354,181.032 455.354,168.482 451.416,169.278   451.416,167.237 455.334,166.441 457.559,166.441 457.559,181.032 461.211,181.032 461.211,182.909 451.723,182.909   451.723,181.032 "
       id="polyline26" />
    <polyline
       transform="translate(11.288617,389.65361)"
       style="fill-rule:evenodd"
       clip-rule="evenodd"
       points="495.474,181.032 499.105,181.032 499.105,168.482 495.147,169.278   495.147,167.237 499.086,166.441 501.31,166.441 501.31,181.032 504.942,181.032 504.942,182.909 495.474,182.909 495.474,181.032   "
       id="polyline28" />
    <polyline
       transform="translate(11.288617,389.65361)"
       style="fill-rule:evenodd"
       clip-rule="evenodd"
       points="539.205,181.032 542.837,181.032 542.837,168.482 538.878,169.278   538.878,167.237 542.816,166.441 545.041,166.441 545.041,181.032 548.674,181.032 548.674,182.909 539.205,182.909   539.205,181.032 "
       id="polyline30" />
    <polyline
       transform="translate(11.288617,389.65361)"
       style="fill-rule:evenodd"
       clip-rule="evenodd"
       points="670.419,181.032 674.051,181.032 674.051,168.482 670.092,169.278   670.092,167.237 674.03,166.441 676.255,166.441 676.255,181.032 679.887,181.032 679.887,182.909 670.419,182.909 670.419,181.032   "
       id="polyline32" />
    <line
       style="fill:none;stroke:#ed3411;stroke-width:2;stroke-linecap:square;stroke-miterlimit:10"
       stroke-miterlimit="10"
       x1="227.02962"
       y1="466.78662"
       x2="205.15462"
       y2="466.78662"
       id="line34" />
    <line
       style="fill:none;stroke:#ed3411;stroke-width:2;stroke-linecap:square;stroke-miterlimit:10"
       stroke-miterlimit="10"
       x1="227.02962"
       y1="423.0856"
       x2="227.02962"
       y2="466.78662"
       id="line36" />
    <line
       style="fill:none;stroke:#ed3411;stroke-width:2;stroke-linecap:square;stroke-miterlimit:10"
       stroke-miterlimit="10"
       x1="248.89561"
       y1="423.0856"
       x2="227.02962"
       y2="423.0856"
       id="line38" />
    <line
       style="fill:none;stroke:#ed3411;stroke-width:2;stroke-linecap:square;stroke-miterlimit:10"
       stroke-miterlimit="10"
       x1="248.89561"
       y1="466.78662"
       x2="248.89561"
       y2="423.0856"
       id="line40" />
    <line
       style="fill:none;stroke:#ed3411;stroke-width:2;stroke-linecap:square;stroke-miterlimit:10"
       stroke-miterlimit="10"
       x1="270.7706"
       y1="466.78662"
       x2="248.89561"
       y2="466.78662"
       id="line42" />
    <line
       style="fill:none;stroke:#ed3411;stroke-width:2;stroke-linecap:square;stroke-miterlimit:10"
       stroke-miterlimit="10"
       x1="270.7706"
       y1="423.0856"
       x2="270.7706"
       y2="466.78662"
       id="line44" />
    <line
       style="fill:none;stroke:#ed3411;stroke-width:2;stroke-linecap:square;stroke-miterlimit:10"
       stroke-miterlimit="10"
       x1="292.6366"
       y1="423.0856"
       x2="270.7706"
       y2="423.0856"
       id="line46" />
    <line
       style="fill:none;stroke:#ed3411;stroke-width:2;stroke-linecap:square;stroke-miterlimit:10"
       stroke-miterlimit="10"
       x1="292.6366"
       y1="466.78662"
       x2="292.6366"
       y2="423.0856"
       id="line48" />
    <line
       style="fill:none;stroke:#ed3411;stroke-width:2;stroke-linecap:square;stroke-miterlimit:10"
       stroke-miterlimit="10"
       x1="314.50259"
       y1="466.78662"
       x2="292.6366"
       y2="466.78662"
       id="line50" />
    <line
       style="fill:none;stroke:#ed3411;stroke-width:2;stroke-linecap:square;stroke-miterlimit:10"
       stroke-miterlimit="10"
       x1="314.50259"
       y1="423.0856"
       x2="314.50259"
       y2="466.78662"
       id="line52" />
    <line
       style="fill:none;stroke:#ed3411;stroke-width:2;stroke-linecap:square;stroke-miterlimit:10"
       stroke-miterlimit="10"
       x1="336.3786"
       y1="423.0856"
       x2="314.50259"
       y2="423.0856"
       id="line54" />
    <line
       style="fill:none;stroke:#ed3411;stroke-width:2;stroke-linecap:square;stroke-miterlimit:10"
       stroke-miterlimit="10"
       x1="336.3786"
       y1="466.78662"
       x2="336.3786"
       y2="423.0856"
       id="line56" />
    <line
       style="fill:none;stroke:#ed3411;stroke-width:2;stroke-linecap:square;stroke-miterlimit:10"
       stroke-miterlimit="10"
       x1="358.24359"
       y1="466.78662"
       x2="336.3786"
       y2="466.78662"
       id="line58" />
    <line
       style="fill:none;stroke:#ed3411;stroke-width:2;stroke-linecap:square;stroke-miterlimit:10"
       stroke-miterlimit="10"
       x1="358.24359"
       y1="423.0856"
       x2="358.24359"
       y2="466.78662"
       id="line60" />
    <line
       style="fill:none;stroke:#ed3411;stroke-width:2;stroke-linecap:square;stroke-miterlimit:10"
       stroke-miterlimit="10"
       x1="380.1196"
       y1="423.0856"
       x2="358.24359"
       y2="423.0856"
       id="line62" />
    <line
       style="fill:none;stroke:#ed3411;stroke-width:2;stroke-linecap:square;stroke-miterlimit:10"
       stroke-miterlimit="10"
       x1="380.1196"
       y1="466.78662"
       x2="380.1196"
       y2="423.0856"
       id="line64" />
    <line
       style="fill:none;stroke:#ed3411;stroke-width:2;stroke-linecap:square;stroke-miterlimit:10"
       stroke-miterlimit="10"
       x1="401.98462"
       y1="466.78662"
       x2="380.1196"
       y2="466.78662"
       id="line66" />
    <line
       style="fill:none;stroke:#ed3411;stroke-width:2;stroke-linecap:square;stroke-miterlimit:10"
       stroke-miterlimit="10"
       x1="401.98462"
       y1="423.0856"
       x2="401.98462"
       y2="466.78662"
       id="line68" />
    <line
       style="fill:none;stroke:#ed3411;stroke-width:2;stroke-linecap:square;stroke-miterlimit:10"
       stroke-miterlimit="10"
       x1="423.85062"
       y1="423.0856"
       x2="401.98462"
       y2="423.0856"
       id="line70" />
    <line
       style="fill:none;stroke:#ed3411;stroke-width:2;stroke-linecap:square;stroke-miterlimit:10"
       stroke-miterlimit="10"
       x1="423.85062"
       y1="466.78662"
       x2="423.85062"
       y2="423.0856"
       id="line72" />
    <line
       style="fill:none;stroke:#ed3411;stroke-width:2;stroke-linecap:square;stroke-miterlimit:10"
       stroke-miterlimit="10"
       x1="445.72659"
       y1="466.78662"
       x2="423.85062"
       y2="466.78662"
       id="line74" />
    <line
       style="fill:none;stroke:#ed3411;stroke-width:2;stroke-linecap:square;stroke-miterlimit:10"
       stroke-miterlimit="10"
       x1="445.72659"
       y1="423.0856"
       x2="445.72659"
       y2="466.78662"
       id="line76" />
    <line
       style="fill:none;stroke:#ed3411;stroke-width:2;stroke-linecap:square;stroke-miterlimit:10"
       stroke-miterlimit="10"
       x1="467.60159"
       y1="423.0856"
       x2="445.72659"
       y2="423.0856"
       id="line78" />
    <line
       style="fill:none;stroke:#ed3411;stroke-width:2;stroke-linecap:square;stroke-miterlimit:10"
       stroke-miterlimit="10"
       x1="467.60159"
       y1="466.78662"
       x2="467.60159"
       y2="423.0856"
       id="line80" />
    <line
       style="fill:none;stroke:#ed3411;stroke-width:2;stroke-linecap:square;stroke-miterlimit:10"
       stroke-miterlimit="10"
       x1="489.45761"
       y1="466.78662"
       x2="467.60159"
       y2="466.78662"
       id="line82" />
    <line
       style="fill:none;stroke:#ed3411;stroke-width:2;stroke-linecap:square;stroke-miterlimit:10"
       stroke-miterlimit="10"
       x1="489.45761"
       y1="423.0856"
       x2="489.45761"
       y2="466.78662"
       id="line84" />
    <line
       style="fill:none;stroke:#ed3411;stroke-width:2;stroke-linecap:square;stroke-miterlimit:10"
       stroke-miterlimit="10"
       x1="511.33362"
       y1="423.0856"
       x2="489.45761"
       y2="423.0856"
       id="line86" />
    <line
       style="fill:none;stroke:#ed3411;stroke-width:2;stroke-linecap:square;stroke-miterlimit:10"
       stroke-miterlimit="10"
       x1="511.33362"
       y1="466.78662"
       x2="511.33362"
       y2="423.0856"
       id="line88" />
    <line
       style="fill:none;stroke:#ed3411;stroke-width:2;stroke-linecap:square;stroke-miterlimit:10"
       stroke-miterlimit="10"
       x1="533.20862"
       y1="466.78662"
       x2="511.33362"
       y2="466.78662"
       id="line90" />
    <line
       style="fill:none;stroke:#ed3411;stroke-width:2;stroke-linecap:square;stroke-miterlimit:10"
       stroke-miterlimit="10"
       x1="533.20862"
       y1="423.0856"
       x2="533.20862"
       y2="466.78662"
       id="line92" />
    <line
       style="fill:none;stroke:#ed3411;stroke-width:2;stroke-linecap:square;stroke-miterlimit:10"
       stroke-miterlimit="10"
       x1="555.06366"
       y1="423.0856"
       x2="533.20862"
       y2="423.0856"
       id="line94" />
    <line
       style="fill:none;stroke:#ed3411;stroke-width:2;stroke-linecap:square;stroke-miterlimit:10"
       stroke-miterlimit="10"
       x1="555.06366"
       y1="466.78662"
       x2="555.06366"
       y2="423.0856"
       id="line96" />
    <line
       style="fill:none;stroke:#ed3411;stroke-width:2;stroke-linecap:square;stroke-miterlimit:10"
       stroke-miterlimit="10"
       x1="576.93964"
       y1="466.78662"
       x2="555.06366"
       y2="466.78662"
       id="line98" />
    <line
       style="fill:none;stroke:#ed3411;stroke-width:2;stroke-linecap:square;stroke-miterlimit:10"
       stroke-miterlimit="10"
       x1="576.93964"
       y1="423.0856"
       x2="576.93964"
       y2="466.78662"
       id="line100" />
    <line
       style="fill:none;stroke:#ed3411;stroke-width:2;stroke-linecap:square;stroke-miterlimit:10"
       stroke-miterlimit="10"
       x1="598.81561"
       y1="423.0856"
       x2="576.93964"
       y2="423.0856"
       id="line102" />
    <line
       style="fill:none;stroke:#ed3411;stroke-width:2;stroke-linecap:square;stroke-miterlimit:10"
       stroke-miterlimit="10"
       x1="598.81561"
       y1="466.78662"
       x2="598.81561"
       y2="423.0856"
       id="line104" />
    <line
       style="fill:none;stroke:#ed3411;stroke-width:2;stroke-linecap:square;stroke-miterlimit:10"
       stroke-miterlimit="10"
       x1="620.67163"
       y1="466.78662"
       x2="598.81561"
       y2="466.78662"
       id="line106" />
    <line
       style="fill:none;stroke:#ed3411;stroke-width:2;stroke-linecap:square;stroke-miterlimit:10"
       stroke-miterlimit="10"
       x1="620.67163"
       y1="423.0856"
       x2="620.67163"
       y2="466.78662"
       id="line108" />
    <line
       style="fill:none;stroke:#ed3411;stroke-width:2;stroke-linecap:square;stroke-miterlimit:10"
       stroke-miterlimit="10"
       x1="642.54761"
       y1="423.0856"
       x2="620.67163"
       y2="423.0856"
       id="line110" />
    <line
       style="fill:none;stroke:#ed3411;stroke-width:2;stroke-linecap:square;stroke-miterlimit:10"
       stroke-miterlimit="10"
       x1="642.54761"
       y1="466.78662"
       x2="642.54761"
       y2="423.0856"
       id="line112" />
    <line
       style="fill:none;stroke:#ed3411;stroke-width:2;stroke-linecap:square;stroke-miterlimit:10"
       stroke-miterlimit="10"
       x1="664.42261"
       y1="466.78662"
       x2="642.54761"
       y2="466.78662"
       id="line114" />
    <line
       style="fill:none;stroke:#ed3411;stroke-width:2;stroke-linecap:square;stroke-miterlimit:10"
       stroke-miterlimit="10"
       x1="664.42261"
       y1="423.0856"
       x2="664.42261"
       y2="466.78662"
       id="line116" />
    <line
       style="fill:none;stroke:#ed3411;stroke-width:2;stroke-linecap:square;stroke-miterlimit:10"
       stroke-miterlimit="10"
       x1="686.27765"
       y1="423.0856"
       x2="664.42261"
       y2="423.0856"
       id="line118" />
    <line
       style="fill:none;stroke:#ed3411;stroke-width:2;stroke-linecap:square;stroke-miterlimit:10"
       stroke-miterlimit="10"
       x1="686.27765"
       y1="466.78662"
       x2="686.27765"
       y2="423.0856"
       id="line120" />
    <line
       style="fill:none;stroke:#ed3411;stroke-width:2;stroke-linecap:square;stroke-miterlimit:10"
       stroke-miterlimit="10"
       x1="730.02966"
       y1="466.78662"
       x2="686.27765"
       y2="466.78662"
       id="line122" />
    <line
       style="fill:none;stroke:#ed3411;stroke-width:2;stroke-linecap:square;stroke-miterlimit:10"
       stroke-miterlimit="10"
       x1="227.02962"
       y1="542.42365"
       x2="205.15462"
       y2="542.42365"
       id="line124" />
    <line
       style="fill:none;stroke:#ed3411;stroke-width:2;stroke-linecap:square;stroke-miterlimit:10"
       stroke-miterlimit="10"
       x1="227.02962"
       y1="498.71262"
       x2="227.02962"
       y2="542.42365"
       id="line126" />
    <line
       style="fill:none;stroke:#ed3411;stroke-width:2;stroke-linecap:square;stroke-miterlimit:10"
       stroke-miterlimit="10"
       x1="270.7706"
       y1="498.71262"
       x2="227.02962"
       y2="498.71262"
       id="line128" />
    <line
       style="fill:none;stroke:#ed3411;stroke-width:2;stroke-linecap:square;stroke-miterlimit:10"
       stroke-miterlimit="10"
       x1="270.7706"
       y1="542.42365"
       x2="270.7706"
       y2="498.71262"
       id="line130" />
    <line
       style="fill:none;stroke:#ed3411;stroke-width:2;stroke-linecap:square;stroke-miterlimit:10"
       stroke-miterlimit="10"
       x1="358.24359"
       y1="498.71262"
       x2="358.24359"
       y2="542.42365"
       id="line132" />
    <line
       style="fill:none;stroke:#ed3411;stroke-width:2;stroke-linecap:square;stroke-miterlimit:10"
       stroke-miterlimit="10"
       x1="576.93964"
       y1="542.42365"
       x2="576.93964"
       y2="498.71262"
       id="line134" />
    <line
       style="fill:none;stroke:#ed3411;stroke-width:2;stroke-linecap:square;stroke-miterlimit:10"
       stroke-miterlimit="10"
       x1="664.42261"
       y1="542.42365"
       x2="576.93964"
       y2="542.42365"
       id="line136" />
    <line
       style="fill:none;stroke:#ed3411;stroke-width:2;stroke-linecap:square;stroke-miterlimit:10"
       stroke-miterlimit="10"
       x1="314.50259"
       y1="542.42365"
       x2="314.50259"
       y2="498.71262"
       id="line138" />
    <line
       style="fill:none;stroke:#ed3411;stroke-width:2;stroke-linecap:square;stroke-miterlimit:10"
       stroke-miterlimit="10"
       x1="358.24359"
       y1="498.71262"
       x2="314.50259"
       y2="498.71262"
       id="line140" />
    <line
       style="fill:none;stroke:#ed3411;stroke-width:2;stroke-linecap:square;stroke-miterlimit:10"
       stroke-miterlimit="10"
       x1="445.72659"
       y1="542.42365"
       x2="358.24359"
       y2="542.42365"
       id="line142" />
    <line
       style="fill:none;stroke:#ed3411;stroke-width:2;stroke-linecap:square;stroke-miterlimit:10"
       stroke-miterlimit="10"
       x1="445.72659"
       y1="498.71262"
       x2="445.72659"
       y2="542.42365"
       id="line144" />
    <line
       style="fill:none;stroke:#ed3411;stroke-width:2;stroke-linecap:square;stroke-miterlimit:10"
       stroke-miterlimit="10"
       x1="576.93964"
       y1="498.71262"
       x2="445.72659"
       y2="498.71262"
       id="line146" />
    <line
       style="fill:none;stroke:#ed3411;stroke-width:2;stroke-linecap:square;stroke-miterlimit:10"
       stroke-miterlimit="10"
       x1="664.42261"
       y1="498.71262"
       x2="664.42261"
       y2="542.42365"
       id="line148" />
    <line
       style="fill:none;stroke:#ed3411;stroke-width:2;stroke-linecap:square;stroke-miterlimit:10"
       stroke-miterlimit="10"
       x1="708.15363"
       y1="498.71262"
       x2="664.42261"
       y2="498.71262"
       id="line150" />
    <line
       style="fill:none;stroke:#ed3411;stroke-width:2;stroke-linecap:square;stroke-miterlimit:10"
       stroke-miterlimit="10"
       x1="708.15363"
       y1="542.42365"
       x2="708.15363"
       y2="498.71262"
       id="line152" />
    <line
       style="fill:none;stroke:#ed3411;stroke-width:2;stroke-linecap:square;stroke-miterlimit:10"
       stroke-miterlimit="10"
       x1="730.02966"
       y1="542.42365"
       x2="708.15363"
       y2="542.42365"
       id="line154" />
    <line
       style="fill:none;stroke:#ed3411;stroke-width:2;stroke-linecap:square;stroke-miterlimit:10"
       stroke-miterlimit="10"
       x1="314.50259"
       y1="542.42365"
       x2="270.7706"
       y2="542.42365"
       id="line156" />
    <path
       stroke-miterlimit="10"
       d="m 227.02962,619.78375 h -21.875 m 21.875,21.855 v -21.855 m 21.866,21.855 h -21.866 m 21.866,0 v -43.71 m 43.741,0 h -43.741 m 43.741,43.71 v -43.71 m 43.742,43.71 h -43.742 m 174.965,0 h -43.751 m 43.751,-43.71 v 43.71 m 87.462,0 h -21.855 m 21.855,-43.71 v 43.71 m 43.752,-43.71 h -43.752 m 43.752,43.71 v -43.71 m 21.856,43.71 h -21.855 m 131.213,-21.855 h -21.876 m -371.775,-21.855 v 43.71 m 43.741,-43.71 h -43.741 m 43.741,43.71 v -43.71 m 21.865,43.71 h -21.865 m 21.865,-43.71 v 43.71 m 21.866,-43.71 h -21.866 m 21.866,43.71 v -43.71 m 65.607,0 h -21.855 m 21.855,43.71 v -43.71 m 21.876,43.71 h -21.876 m 21.876,-43.71 v 43.71 m 21.875,-43.71 h -21.875 m 21.875,43.71 v -43.71 m 87.463,0 v 43.71 m 21.876,-43.71 h -21.876 m 21.876,43.71 v -43.71 m 43.73,43.71 h -43.73 m 43.73,-43.71 v 43.71 m 21.876,-43.71 h -21.876 m 21.876,21.855 v -21.854"
       id="path158"
       inkscape:connector-curvature="0"
       style="fill:none;stroke:#ed3411;stroke-width:2;stroke-linecap:square;stroke-miterlimit:10" />
    <text
       xml:space="preserve"
       style="font-size:40px;font-style:normal;font-variant:normal;font-weight:500;font-stretch:normal;line-height:125%;letter-spacing:0px;word-spacing:0px;fill:#000000;fill-opacity:1;stroke:none;font-family:Century Schoolbook L;-inkscape-font-specification:Century Schoolbook L Medium"
       x="100.76839"
       y="467.80414"
       id="text3988"
       sodipodi:linespacing="125%"><tspan
         sodipodi:role="line"
         id="tspan3990"
         x="100.76839"
         y="467.80414"
         style="font-size:28px">zegar</tspan></text>
    <text
       xml:space="preserve"
       style="font-size:40px;font-style:normal;font-weight:normal;line-height:125%;letter-spacing:0px;word-spacing:0px;fill:#000000;fill-opacity:1;stroke:none;font-family:Sans"
       x="109.22527"
       y="543.43176"
       id="text3992"
       sodipodi:linespacing="125%"><tspan
         sodipodi:role="line"
         id="tspan3994"
         x="109.22527"
         y="543.43176"
         style="font-size:28px;font-style:normal;font-variant:normal;font-weight:500;font-stretch:normal;font-family:Century Schoolbook L;-inkscape-font-specification:Century Schoolbook L Medium">dane</tspan></text>
    <text
       xml:space="preserve"
       style="font-size:40px;font-style:normal;font-weight:normal;line-height:125%;letter-spacing:0px;word-spacing:0px;fill:#000000;fill-opacity:1;stroke:none;font-family:Sans"
       x="18.354338"
       y="620.66559"
       id="text3996"
       sodipodi:linespacing="125%"><tspan
         sodipodi:role="line"
         x="18.354338"
         y="620.66559"
         style="font-size:28px;font-style:normal;font-variant:normal;font-weight:500;font-stretch:normal;font-family:Century Schoolbook L;-inkscape-font-specification:Century Schoolbook L Medium"
         id="tspan4000">Manchester</tspan></text>
  </g>
</svg>
